<svg width="75" height="48" viewBox="0 0 75 48" fill="none" xmlns="http://www.w3.org/2000/svg">
<path d="M30.2685 21.2353C30.2685 21.2353 37.366 20.7085 37.366 12.3856C37.366 4.06204 31.5593 0 24.2039 0H10.6645H10.2677H0V46.5131H10.2677H10.6645H24.2039C24.2039 46.5131 38.9795 46.9798 38.9795 32.7845C38.9795 32.7845 39.6236 21.2353 30.2685 21.2353ZM22.4617 8.26703H24.2039C24.2039 8.26703 27.4939 8.26703 27.4939 13.1065C27.4939 17.9453 25.559 18.647 23.3643 18.647H10.6645V8.26703H22.4617ZM23.5199 38.246H10.6645V25.816H24.2039C24.2039 25.816 29.1075 25.7517 29.1075 32.2039C29.1075 37.6443 25.445 38.205 23.5199 38.246ZM58.6852 11.8342C40.7978 11.8342 40.8137 29.7057 40.8137 29.7057C40.8137 29.7057 39.5864 47.4857 58.6852 47.4857C58.6852 47.4857 74.6008 48.395 74.6008 35.1172H66.4158C66.4158 35.1172 66.6888 40.1174 58.9584 40.1174C58.9584 40.1174 50.7719 40.666 50.7719 32.0252H74.8737C74.8737 32.0252 77.5111 11.8342 58.6852 11.8342ZM50.682 25.816C50.682 25.816 51.6813 18.647 58.8671 18.647C66.0514 18.647 65.9614 25.816 65.9614 25.816H50.682ZM67.8681 8.46781H48.678V2.74007H67.8681V8.46781Z" fill="#D8D8E3"/>
</svg>
