<svg width="53" height="75" viewBox="0 0 53 75" fill="none" xmlns="http://www.w3.org/2000/svg">
<path fill-rule="evenodd" clip-rule="evenodd" d="M16.157 0C11.1031 0 7.01668 1.69731 4.18413 4.5171C1.38146 7.30666 0 11.0101 0 14.6738C0 18.3375 1.38146 22.041 4.18413 24.8306C4.37799 25.0232 4.57762 25.2111 4.78302 25.3942C5.05449 25.6347 5.3361 25.8655 5.62749 26.0868C5.36694 26.2843 5.11439 26.4897 4.86979 26.703C4.63374 26.91 4.40506 27.1234 4.18413 27.3431C1.38146 30.1326 0 33.8363 0 37.4998C0 41.1634 1.38146 44.8671 4.18413 47.6564C4.60746 48.0784 5.05866 48.4733 5.53693 48.8427C3.59522 50.3887 2.07165 52.4045 1.11694 54.71C0.00635797 57.3914 -0.284216 60.3418 0.282032 63.1885C0.848247 66.0356 2.24562 68.6498 4.29777 70.7022C6.35016 72.7546 8.96477 74.1509 11.811 74.7179C14.6575 75.2847 17.6079 74.9931 20.2894 73.8818C22.9708 72.7722 25.2622 70.8916 26.8747 68.478C28.4872 66.0659 29.3477 63.2283 29.3477 60.3258V49.7026C31.6792 51.2629 34.4835 52.1737 37.4998 52.1737C45.604 52.1737 52.1737 45.6044 52.1737 37.4998C52.1737 32.8505 50.0114 28.706 46.6371 26.0168C47.1151 25.6474 47.5664 25.2525 47.9897 24.8306C50.7924 22.041 52.1737 18.3375 52.1737 14.6738C52.1737 11.0101 50.7924 7.30666 47.9897 4.5171C45.157 1.69731 41.0705 0 36.0168 0H16.157ZM22.826 29.3477H16.157C12.6133 29.3477 10.2519 30.5036 8.78562 31.9636C7.28954 33.4541 6.52171 35.4569 6.52171 37.4998C6.52171 39.5428 7.28954 41.5456 8.78562 43.0361C10.2519 44.496 12.6135 45.652 16.157 45.652H22.826V29.3477ZM10.1725 53.5892C11.5048 52.699 13.0713 52.1737 14.6738 52.1737C14.6738 52.1737 15.9184 52.1737 16.157 52.1737H22.826V60.3258C22.826 61.9275 22.3013 63.4944 21.4108 64.8271C20.5206 66.1598 19.2551 67.1977 17.7745 67.8108C16.2939 68.4255 14.6649 68.5846 13.0932 68.2725C11.5214 67.9604 10.0777 67.1883 8.94446 66.0545C7.81141 64.9226 7.03976 63.4784 6.72711 61.907C6.41443 60.3353 6.57486 58.7048 7.18826 57.2257C7.80146 55.745 8.83998 54.4791 10.1725 53.5892ZM29.3477 22.826H36.0168C39.56 22.826 41.9219 21.67 43.388 20.21C44.884 18.7197 45.652 16.7166 45.652 14.6738C45.652 12.6311 44.884 10.628 43.388 9.13773C41.9219 7.67765 39.5604 6.52171 36.0168 6.52171H29.3477V22.826ZM22.826 22.826H16.157C12.6135 22.826 10.2519 21.67 8.78562 20.21C7.28954 18.7197 6.52171 16.7166 6.52171 14.6738C6.52171 12.6311 7.28954 10.628 8.78562 9.13773C10.2519 7.67765 12.6133 6.52171 16.157 6.52171H22.826V22.826ZM37.4998 45.6027C33.025 45.6027 29.3976 41.974 29.3976 37.4998C29.3976 33.0256 33.025 29.3971 37.4998 29.3971C41.9747 29.3971 45.6021 33.0256 45.6021 37.4998C45.6021 41.974 41.9747 45.6027 37.4998 45.6027Z" fill="#D8D8E3"/>
</svg>
