<svg width="82" height="74" viewBox="0 0 82 74" fill="none" xmlns="http://www.w3.org/2000/svg">
<g filter="url(#filter0_b_14_56)">
<rect x="0.745117" y="17.9407" width="67.4678" height="57.4678" rx="12.1182" transform="rotate(-15.3964 0.745117 17.9407)" fill="url(#paint0_linear_14_56)" fill-opacity="0.15"/>
<g opacity="0.7" filter="url(#filter1_f_14_56)">
<path d="M35.1188 47.2678C33.8899 47.6062 32.891 47.562 32.1219 47.1351C31.3546 46.7141 30.7943 45.8624 30.4412 44.5801L29.8183 42.3183C29.6499 41.7068 29.3867 41.2843 29.0286 41.0508C28.6705 40.8173 28.1739 40.788 27.5386 40.9629L26.9776 41.1174L26.5142 39.4344L27.0752 39.2799C27.3958 39.1916 27.6598 39.0838 27.8675 38.9564C28.0734 38.823 28.228 38.6655 28.3313 38.4837C28.4345 38.302 28.4856 38.0932 28.4845 37.8572C28.4876 37.6136 28.4467 37.3375 28.3617 37.0288L27.9301 35.4615C27.7617 34.85 27.6821 34.294 27.6911 33.7933C27.7061 33.291 27.8194 32.8446 28.0313 32.4542C28.2431 32.0637 28.5563 31.7284 28.9709 31.4482C29.3898 31.1604 29.9228 30.9274 30.5699 30.7492L31.3179 30.5432L31.779 32.2173L31.2179 32.3718C30.933 32.4503 30.6846 32.557 30.4726 32.692C30.265 32.8194 30.0994 32.9832 29.9757 33.1833C29.8519 33.3835 29.7807 33.6234 29.7619 33.9032C29.7416 34.1771 29.7829 34.501 29.8859 34.875L30.315 36.4334C30.4376 36.8786 30.5036 37.2692 30.5131 37.6051C30.5285 37.9394 30.4885 38.2346 30.393 38.4908C30.2958 38.7411 30.1449 38.9583 29.9401 39.1424C29.7337 39.3206 29.4768 39.4776 29.1693 39.6134C29.8241 39.5097 30.3647 39.6291 30.7911 39.9715C31.2159 40.308 31.5493 40.9155 31.7912 41.7941L32.4141 44.056C32.5204 44.4419 32.6532 44.7502 32.8125 44.9809C32.9718 45.2117 33.1559 45.3814 33.3646 45.4899C33.5733 45.5985 33.7995 45.6544 34.0431 45.6576C34.2926 45.6591 34.5598 45.6207 34.8448 45.5422L35.4058 45.3877L35.8668 47.0618L35.1188 47.2678ZM45.9576 26.5118C47.1924 26.1717 48.1944 26.2151 48.9634 26.6421C49.7308 27.063 50.2918 27.9176 50.6466 29.2059L51.0586 30.7019C51.2269 31.3134 51.4872 31.7367 51.8394 31.9718C52.1958 32.1994 52.6917 32.2257 53.3269 32.0508L53.8968 31.8938L54.3603 33.5769L53.7904 33.7338C53.4698 33.8221 53.2065 33.9329 53.0005 34.0663C52.7929 34.1937 52.6375 34.3483 52.5343 34.53C52.4369 34.7101 52.3867 34.9219 52.3835 35.1655C52.3846 35.4015 52.4277 35.6738 52.5127 35.9825L53.1577 38.3245C53.326 38.936 53.4019 39.4899 53.3853 39.9863C53.3763 40.4869 53.2659 40.9325 53.0541 41.3229C52.8422 41.7134 52.5261 42.0495 52.1055 42.3314C51.6866 42.6192 51.1536 42.8522 50.5065 43.0304L49.7585 43.2364L49.2975 41.5622L49.8674 41.4053C50.1523 41.3268 50.3986 41.2239 50.6062 41.0965C50.8198 40.9674 50.9876 40.7998 51.1097 40.5938C51.2334 40.3936 51.3046 40.1537 51.3234 39.8739C51.3438 39.6 51.3025 39.2761 51.1995 38.9021L50.5619 36.5868C50.4393 36.1416 50.3703 35.7518 50.3549 35.4175C50.3438 35.0757 50.3838 34.7805 50.475 34.5318C50.5705 34.2756 50.7215 34.0584 50.9279 33.8802C51.1343 33.702 51.3912 33.545 51.6987 33.4093C51.0422 33.507 50.5016 33.3876 50.0768 33.0512C49.6564 32.7071 49.3252 32.0958 49.0832 31.2171L48.6737 29.73C48.5674 29.3441 48.4346 29.0358 48.2753 28.8051C48.1143 28.5684 47.9294 28.3957 47.7207 28.2872C47.512 28.1786 47.2829 28.1235 47.0333 28.122C46.7898 28.1188 46.5255 28.1565 46.2406 28.2349L45.6706 28.3919L45.2096 26.7177L45.9576 26.5118Z" fill="#EDEDF5"/>
</g>
</g>
<defs>
<filter id="filter0_b_14_56" x="-2.21053" y="-2.92733" width="86.215" height="79.2289" filterUnits="userSpaceOnUse" color-interpolation-filters="sRGB">
<feFlood flood-opacity="0" result="BackgroundImageFix"/>
<feGaussianBlur in="BackgroundImageFix" stdDeviation="1.47782"/>
<feComposite in2="SourceAlpha" operator="in" result="effect1_backgroundBlur_14_56"/>
<feBlend mode="normal" in="SourceGraphic" in2="effect1_backgroundBlur_14_56" result="shape"/>
</filter>
<filter id="filter1_f_14_56" x="22.4827" y="22.7644" width="36.1201" height="28.2483" filterUnits="userSpaceOnUse" color-interpolation-filters="sRGB">
<feFlood flood-opacity="0" result="BackgroundImageFix"/>
<feBlend mode="normal" in="SourceGraphic" in2="BackgroundImageFix" result="shape"/>
<feGaussianBlur stdDeviation="1.04723" result="effect1_foregroundBlur_14_56"/>
</filter>
<linearGradient id="paint0_linear_14_56" x1="4.87846" y1="20.9393" x2="51.6419" y2="30.1145" gradientUnits="userSpaceOnUse">
<stop stop-color="#B1D5FF"/>
<stop offset="1" stop-color="#8C96E7"/>
</linearGradient>
</defs>
</svg>
