<svg width="120" height="92" viewBox="0 0 120 92" fill="none" xmlns="http://www.w3.org/2000/svg">
<g filter="url(#filter0_f_183_99)">
<rect x="15.1243" width="107.417" height="69.9425" rx="20" transform="rotate(12.4882 15.1243 0)" fill="url(#paint0_linear_183_99)" fill-opacity="0.15"/>
<g opacity="0.7" filter="url(#filter1_f_183_99)">
<path d="M40.3641 51.4797L35.8985 50.4907L39.6259 33.6612L44.0914 34.6502L43.8106 35.9183L40.8487 35.2623L37.683 49.5556L40.6449 50.2116L40.3641 51.4797ZM49.4543 46.6039C49.6596 46.6494 49.8441 46.7314 50.0079 46.85C50.1777 46.97 50.3136 47.1141 50.4157 47.2824C50.5238 47.4521 50.5964 47.6392 50.6335 47.8438C50.6719 48.0423 50.6676 48.2473 50.6208 48.4586C50.5754 48.6639 50.4933 48.8485 50.3747 49.0123C50.2561 49.176 50.1119 49.312 49.9423 49.4201C49.78 49.5235 49.5966 49.5938 49.392 49.6308C49.1935 49.6692 48.9915 49.6656 48.7862 49.6202C48.5749 49.5734 48.3873 49.4906 48.2235 49.372C48.0598 49.2534 47.9231 49.1123 47.8137 48.9487C47.7116 48.7804 47.6414 48.5969 47.603 48.3984C47.5646 48.1998 47.5682 47.9979 47.6136 47.7926C47.6604 47.5812 47.7431 47.3937 47.8618 47.2299C47.9817 47.0601 48.1235 46.9205 48.2871 46.811C48.4568 46.7029 48.6409 46.6296 48.8394 46.5913C49.038 46.5529 49.2429 46.5571 49.4543 46.6039ZM59.6534 48.8628C59.8587 48.9083 60.0432 48.9903 60.207 49.1089C60.3768 49.2289 60.5128 49.373 60.6149 49.5413C60.723 49.711 60.7956 49.8981 60.8326 50.1027C60.871 50.3012 60.8668 50.5062 60.82 50.7175C60.7745 50.9228 60.6924 51.1074 60.5738 51.2711C60.4552 51.4349 60.3111 51.5709 60.1414 51.679C59.9791 51.7824 59.7957 51.8527 59.5911 51.8897C59.3926 51.9281 59.1907 51.9245 58.9853 51.8791C58.774 51.8322 58.5864 51.7495 58.4227 51.6309C58.2589 51.5123 58.1223 51.3712 58.0128 51.2076C57.9107 51.0392 57.8405 50.8558 57.8021 50.6573C57.7637 50.4587 57.7673 50.2568 57.8128 50.0515C57.8596 49.8401 57.9423 49.6526 58.0609 49.4888C58.1809 49.319 58.3227 49.1794 58.4863 49.0699C58.6559 48.9618 58.84 48.8885 59.0385 48.8501C59.2371 48.8118 59.442 48.816 59.6534 48.8628ZM69.8525 51.1217C70.0578 51.1672 70.2424 51.2492 70.4061 51.3678C70.576 51.4878 70.7119 51.6319 70.814 51.8002C70.9221 51.9699 70.9947 52.157 71.0317 52.3616C71.0701 52.5601 71.0659 52.7651 71.0191 52.9764C70.9736 53.1817 70.8916 53.3663 70.773 53.53C70.6543 53.6938 70.5102 53.8298 70.3405 53.9379C70.1783 54.0413 69.9948 54.1115 69.7903 54.1486C69.5917 54.187 69.3898 54.1834 69.1845 54.1379C68.9731 54.0911 68.7856 54.0084 68.6218 53.8898C68.458 53.7712 68.3214 53.6301 68.212 53.4664C68.1099 53.2981 68.0396 53.1147 68.0013 52.9162C67.9629 52.7176 67.9664 52.5157 68.0119 52.3104C68.0587 52.099 68.1414 51.9115 68.26 51.7477C68.38 51.5779 68.5218 51.4383 68.6854 51.3288C68.855 51.2207 69.0391 51.1474 69.2377 51.109C69.4362 51.0707 69.6412 51.0749 69.8525 51.1217ZM80.6443 60.4009L76.1788 59.4119L76.4596 58.1438L79.4034 58.7958L82.5691 44.5025L79.6253 43.8505L79.9062 42.5824L84.3717 43.5714L80.6443 60.4009Z" fill="white"/>
</g>
</g>
<defs>
<filter id="filter0_f_183_99" x="-3" y="-3" width="126" height="97.5156" filterUnits="userSpaceOnUse" color-interpolation-filters="sRGB">
<feFlood flood-opacity="0" result="BackgroundImageFix"/>
<feBlend mode="normal" in="SourceGraphic" in2="BackgroundImageFix" result="shape"/>
<feGaussianBlur stdDeviation="1.5" result="effect1_foregroundBlur_183_99"/>
</filter>
<filter id="filter1_f_183_99" x="33.8984" y="31.6611" width="52.4731" height="30.7397" filterUnits="userSpaceOnUse" color-interpolation-filters="sRGB">
<feFlood flood-opacity="0" result="BackgroundImageFix"/>
<feBlend mode="normal" in="SourceGraphic" in2="BackgroundImageFix" result="shape"/>
<feGaussianBlur stdDeviation="1" result="effect1_foregroundBlur_183_99"/>
</filter>
<linearGradient id="paint0_linear_183_99" x1="21.7051" y1="3.64958" x2="94.2456" y2="22.2682" gradientUnits="userSpaceOnUse">
<stop stop-color="#B1D5FF"/>
<stop offset="1" stop-color="#8C96E7"/>
</linearGradient>
</defs>
</svg>
