<svg width="92" height="71" viewBox="0 0 92 71" fill="none" xmlns="http://www.w3.org/2000/svg">
<g filter="url(#filter0_b_24_15)">
<rect x="0.589355" y="23.8962" width="80.1281" height="49.1098" rx="10.2875" transform="rotate(-16.9616 0.589355 23.8962)" fill="url(#paint0_linear_24_15)" fill-opacity="0.2"/>
<g opacity="0.7" filter="url(#filter1_f_24_15)">
<path d="M28.7694 47.8866L24.5261 33.974L28.4711 32.7708L28.9057 34.1958L26.6482 34.8844L30.0223 45.9469L32.2798 45.2583L32.7144 46.6833L28.7694 47.8866ZM37.3522 38.9894C37.5622 38.9253 37.7694 38.9059 37.9738 38.931C38.1767 38.9511 38.3637 39.0088 38.5349 39.1041C38.7095 39.193 38.8618 39.3159 38.9917 39.4731C39.1216 39.6302 39.2178 39.8113 39.2803 40.0163C39.3413 40.2163 39.3618 40.4177 39.3417 40.6206C39.32 40.8184 39.2623 41.0055 39.1685 41.1816C39.0781 41.3513 38.9544 41.5011 38.7973 41.631C38.6417 41.7659 38.4589 41.8653 38.2489 41.9294C38.0489 41.9904 37.8492 42.0076 37.6498 41.981C37.4519 41.9593 37.2681 41.9033 37.0985 41.813C36.9273 41.7176 36.7775 41.5939 36.6492 41.4418C36.5193 41.2847 36.4238 41.1061 36.3628 40.9061C36.3003 40.7011 36.2791 40.4972 36.2992 40.2943C36.3193 40.0914 36.3745 39.9051 36.4649 39.7355C36.5537 39.5608 36.6742 39.4093 36.8263 39.281C36.9769 39.1476 37.1522 39.0504 37.3522 38.9894ZM45.7972 36.4137C46.0072 36.3496 46.2144 36.3301 46.4188 36.3552C46.6217 36.3753 46.8087 36.4331 46.9799 36.5284C47.1545 36.6173 47.3068 36.7402 47.4367 36.8974C47.5666 37.0545 47.6628 37.2355 47.7253 37.4405C47.7863 37.6405 47.8068 37.842 47.7867 38.0449C47.7651 38.2427 47.7073 38.4298 47.6135 38.6059C47.5232 38.7756 47.3994 38.9254 47.2423 39.0553C47.0867 39.1902 46.9039 39.2896 46.6939 39.3537C46.4939 39.4147 46.2942 39.4319 46.0948 39.4052C45.8969 39.3836 45.7132 39.3276 45.5435 39.2373C45.3723 39.1419 45.2226 39.0182 45.0942 38.8661C44.9643 38.7089 44.8688 38.5304 44.8078 38.3304C44.7453 38.1254 44.7241 37.9214 44.7442 37.7186C44.7643 37.5157 44.8195 37.3294 44.9099 37.1598C44.9987 36.9851 45.1192 36.8336 45.2713 36.7052C45.4219 36.5719 45.5972 36.4747 45.7972 36.4137ZM54.2422 33.838C54.4522 33.7739 54.6594 33.7544 54.8638 33.7795C55.0667 33.7996 55.2537 33.8574 55.4249 33.9527C55.5995 34.0415 55.7518 34.1645 55.8817 34.3216C56.0116 34.4788 56.1078 34.6598 56.1703 34.8648C56.2313 35.0648 56.2518 35.2663 56.2317 35.4691C56.2101 35.667 56.1523 35.854 56.0585 36.0302C55.9682 36.1999 55.8444 36.3496 55.6873 36.4795C55.5317 36.6144 55.3489 36.7139 55.1389 36.778C54.9389 36.839 54.7392 36.8561 54.5398 36.8295C54.3419 36.8079 54.1582 36.7519 53.9885 36.6616C53.8173 36.5662 53.6676 36.4425 53.5392 36.2903C53.4093 36.1332 53.3138 35.9547 53.2528 35.7547C53.1903 35.5497 53.1691 35.3457 53.1892 35.1428C53.2093 34.94 53.2645 34.7537 53.3549 34.5841C53.4437 34.4094 53.5642 34.2579 53.7163 34.1295C53.8669 33.9961 54.0422 33.899 54.2422 33.838ZM62.2419 37.6775L61.8073 36.2525L64.0498 35.5685L60.6758 24.506L58.4333 25.19L57.9986 23.765L61.9286 22.5663L66.1719 36.4788L62.2419 37.6775Z" fill="#EDEDF5"/>
</g>
</g>
<defs>
<filter id="filter0_b_24_15" x="-1.91979" y="-1.98876" width="95.9875" height="75.3677" filterUnits="userSpaceOnUse" color-interpolation-filters="sRGB">
<feFlood flood-opacity="0" result="BackgroundImageFix"/>
<feGaussianBlur in="BackgroundImageFix" stdDeviation="1.25458"/>
<feComposite in2="SourceAlpha" operator="in" result="effect1_backgroundBlur_24_15"/>
<feBlend mode="normal" in="SourceGraphic" in2="effect1_backgroundBlur_24_15" result="shape"/>
</filter>
<filter id="filter1_f_24_15" x="22.2548" y="20.2952" width="46.1881" height="29.8625" filterUnits="userSpaceOnUse" color-interpolation-filters="sRGB">
<feFlood flood-opacity="0" result="BackgroundImageFix"/>
<feBlend mode="normal" in="SourceGraphic" in2="BackgroundImageFix" result="shape"/>
<feGaussianBlur stdDeviation="1.13554" result="effect1_foregroundBlur_24_15"/>
</filter>
<linearGradient id="paint0_linear_24_15" x1="5.49832" y1="26.4588" x2="104.427" y2="1.99542" gradientUnits="userSpaceOnUse">
<stop stop-color="#F48AF9"/>
<stop offset="1" stop-color="#C48CE7"/>
</linearGradient>
</defs>
</svg>
