<svg width="100" height="38" viewBox="0 0 100 38" fill="none" xmlns="http://www.w3.org/2000/svg">
<path d="M7.54595 11.3171C7.35011 11.3171 7.30428 11.2212 7.40011 11.0711L8.42511 9.75776C8.52094 9.61183 8.7626 9.51594 8.95844 9.51594H26.3417C26.5333 9.51594 26.5833 9.66186 26.4875 9.80779L25.6583 11.0711C25.5625 11.2212 25.3167 11.3629 25.1708 11.3629L7.54595 11.3171ZM0.195988 15.799C0.000155404 15.799 -0.0498443 15.7031 0.0501551 15.5572L1.07098 14.2397C1.16682 14.0938 1.41265 13.9979 1.60848 13.9979H23.8084C24.0042 13.9979 24.1 14.1438 24.05 14.2897L23.6625 15.4571C23.6125 15.6531 23.4209 15.749 23.225 15.749L0.195988 15.799ZM11.9793 20.2809C11.7834 20.2809 11.7334 20.135 11.8334 19.9891L12.5126 18.7717C12.6084 18.6257 12.8042 18.4798 13.0001 18.4798H22.7375C22.9334 18.4798 23.0292 18.6257 23.0292 18.8217L22.9334 19.9891C22.9334 20.185 22.7375 20.331 22.5917 20.331L11.9793 20.2809ZM62.5165 10.4415C59.4498 11.2212 57.354 11.8049 54.3373 12.5845C53.604 12.7763 53.5582 12.8263 52.9207 12.0967C52.1957 11.267 51.6582 10.7334 50.6374 10.2456C47.5665 8.73629 44.5957 9.17406 41.8249 10.9752C38.5124 13.1182 36.8083 16.2868 36.8583 20.2309C36.9041 24.1291 39.5833 27.3436 43.4291 27.8815C46.7416 28.3192 49.5124 27.1518 51.7082 24.6711C52.1457 24.1291 52.5332 23.5455 53.0207 22.8617H43.6249C42.6041 22.8617 42.3582 22.228 42.6999 21.4025C43.3332 19.8932 44.4999 17.3583 45.1832 16.0908C45.2876 15.856 45.4584 15.657 45.6747 15.5184C45.891 15.3798 46.1431 15.3078 46.3999 15.3112H64.1206C64.0248 16.6287 64.0248 17.942 63.829 19.2595C63.3246 22.728 61.9514 26.0124 59.8373 28.807C56.3332 33.4349 51.754 36.3117 45.9624 37.0872C41.1916 37.7209 36.7583 36.7953 32.8666 33.8768C29.2625 31.146 27.2167 27.5396 26.6833 23.0576C26.05 17.746 27.6083 12.9722 30.8208 8.78215C34.2791 4.25435 38.8541 1.37757 44.4541 0.360276C49.029 -0.473573 53.4123 0.0684276 57.354 2.74091C59.9373 4.4503 61.7831 6.78508 63.004 9.61183C63.2956 10.0496 63.0998 10.2956 62.5165 10.4457M78.633 37.3832C74.1997 37.2831 70.1581 36.0157 66.7498 33.093C63.9144 30.7019 62.0454 27.3601 61.4915 23.6914C60.6165 18.188 62.1248 13.3141 65.4373 8.97811C68.9914 4.30021 73.2747 1.86537 79.0705 0.848076C84.0372 -0.0274653 88.7121 0.451997 92.9454 3.32878C96.7913 5.9554 99.1787 9.51594 99.8121 14.1897C100.637 20.7687 98.7413 26.1262 94.2121 30.7082C90.9996 33.9727 87.0538 36.0157 82.5247 36.9412C81.2122 37.1914 79.8997 37.2331 78.633 37.3832ZM90.2163 17.7043C90.1705 17.0664 90.1705 16.5786 90.0746 16.0908C89.1996 11.267 84.7663 8.5445 80.1414 9.61183C75.6122 10.6333 72.6914 13.5101 71.6206 18.0879C70.7456 21.8903 72.5956 25.7385 76.0997 27.3019C78.7789 28.4693 81.4539 28.3192 84.0372 27.0101C87.883 25.0089 89.9746 21.8903 90.2205 17.7002L90.2163 17.7043Z" fill="#D8D8E3"/>
</svg>
