<svg width="75" height="75" viewBox="0 0 75 75" fill="none" xmlns="http://www.w3.org/2000/svg">
<path d="M45.4878 63.3225L44.7735 64.3479L44.5246 65.6222L44.7735 66.8965L45.4878 67.9219L46.5132 68.6361L47.7875 68.885L49.0617 68.6361L50.0871 67.9219L50.8014 66.8965L51.0503 65.6222L50.8014 64.3479L50.0871 63.3225L49.0617 62.6083L47.7875 62.3594L46.5132 62.6083L45.4878 63.3225ZM65.6098 19.0045L66.4808 19.1911L67.4764 19.5645L68.564 20.1244L69.6839 20.9632L70.8039 22.0508L71.8915 23.5117L72.887 25.3459L73.7581 27.6157L74.4102 30.3534L74.8457 33.5888L75 37.4141L74.8133 41.2394L74.3156 44.4749L73.5689 47.1503L72.5734 49.3579L71.4535 51.1299L70.2091 52.5286L68.9024 53.554L67.5958 54.3006L66.3514 54.7984L65.2315 55.0772L64.2359 55.2315L63.4893 55.2937L62.9915 55.2638H37.4266V57.8148H55.5898L55.6197 66.3987L55.6819 67.5187L55.5276 68.5764L55.1867 69.5396L54.659 70.4405L53.8825 71.217L52.9194 71.9637L51.7372 72.5859L50.3683 73.1135L48.783 73.5789L46.9786 73.9821L44.9876 74.2608L42.78 74.4773L40.3858 74.6018L37.7725 74.6317L33.8228 74.5072L30.4953 74.0717L27.6954 73.4495L25.4256 72.673L23.5913 71.7397L22.1926 70.7143L21.1349 69.6565L20.3584 68.5988L19.8606 67.5734L19.5495 66.6401L19.4251 65.8636L19.3629 65.2414L19.3927 64.8382V48.2305L19.5495 46.2394L19.9527 44.5595L20.6048 43.1284L21.4136 41.9462L22.3469 40.9507L23.3723 40.2041L24.4599 39.5819L25.5475 39.1463L26.5729 38.8352L27.5062 38.6486L28.3151 38.5241L28.9671 38.4619L29.3703 38.4321H47.5336L49.6789 38.2778L51.5132 37.8422L53.0687 37.1901L54.343 36.3191L55.3683 35.3235L56.2071 34.2359L56.8293 33.116L57.2947 31.996L57.6058 30.9084L57.8223 29.9129L57.9467 29.0418L58.009 28.3897V18.8726H64.5097L64.9452 18.9024L65.6098 19.0045ZM24.898 6.71976L24.1837 7.74515L23.9348 9.01941L24.1837 10.2937L24.898 11.3514L25.9233 12.0358L27.1976 12.3146L28.4719 12.0333L29.4973 11.3489L30.2115 10.2912L30.4604 9.01692L30.2115 7.74266L29.4973 6.71727L28.4719 6.03285L27.1976 5.75411L25.9233 6.03285L24.898 6.71976ZM44.4923 0.55998L47.2922 1.18218L49.562 1.99104L51.3962 2.92434L52.7949 3.91986L53.8527 4.9776L54.6292 6.03534L55.1269 7.06073L55.438 7.99403L55.5625 8.80289L55.6247 9.42509L55.5948 9.82827V26.436L55.4405 28.3947L55.0373 30.1045L54.3853 31.5356L53.5764 32.7178L52.6431 33.6809L51.6177 34.4574L50.5301 35.0473L49.4425 35.4828L48.4171 35.7939L47.4838 36.0105L46.675 36.1349L46.0204 36.1971H27.454L25.3086 36.3514L23.4744 36.787L21.9189 37.4714L20.6446 38.3101L19.6192 39.3056L18.7805 40.3932L18.1583 41.5132L17.6929 42.663L17.3818 43.7506L17.1653 44.7461L17.0408 45.5849L16.9786 46.2369V55.7541H10.0423L9.39024 55.662L8.51916 55.4455L7.52364 55.0722L6.43604 54.5122L5.31608 53.7033L4.19612 52.5834L3.10851 51.1523L2.11299 49.3181L1.24191 47.0483L0.589846 44.3106L0.154306 41.0453L0 37.22L0.18666 33.4271L0.68442 30.1916L1.43106 27.4863L2.42658 25.2787L3.54654 23.5067L4.79094 22.1379L6.09756 21.1125L7.40418 20.3659L8.64858 19.8681L9.76854 19.557L10.7641 19.4027L11.5107 19.3728H12.0085L12.1951 19.4027H37.5734V16.8218H19.4102L19.3803 8.27028L19.3181 7.12046L19.4724 6.06272L19.8133 5.09955L20.341 4.22847L21.1175 3.41961L22.0806 2.70533L23.2628 2.08313L24.6317 1.52315L26.217 1.05774L28.0214 0.68442L30.0124 0.37332L32.22 0.18666L34.6142 0.0622202L37.2275 0L41.1772 0.156795L44.4923 0.55998Z" fill="#D8D8E3"/>
</svg>
