<svg width="75" height="67" viewBox="0 0 75 67" fill="none" xmlns="http://www.w3.org/2000/svg">
<path d="M75 33.5557C75 28.7612 69.863 24.3091 61.3014 21.2269L59.7603 20.7132V20.0283C61.6438 10.6105 60.274 3.58995 55.9931 1.02146C51.7123 -1.54703 45.3767 0.850227 38.5274 6.84338L37.5 7.87077L37.1575 7.52831H36.8151C29.7945 1.02146 22.9452 -1.20457 18.6644 1.19269C14.3836 3.58995 13.1849 10.268 14.8973 19.0009C15.0774 19.5565 15.1923 20.1311 15.2397 20.7132L13.3562 21.3982C4.96575 24.3091 0 28.7612 0 33.5557C0 38.3502 5.47945 43.1447 14.0411 46.2269L15.2397 46.5694C15.0282 47.1756 14.9126 47.8111 14.8973 48.453C13.1849 57.0146 14.726 63.5215 18.6644 65.9187C22.6027 68.316 29.7945 66.09 36.6438 60.0968L37.6712 59.2406L39.0411 60.6105C43.8356 64.7201 48.6301 66.9461 52.3973 66.9461C53.7261 66.9764 55.035 66.6194 56.1644 65.9187C60.4452 63.5215 61.9863 56.5009 60.1027 47.5968V47.2543C60.0288 46.9726 59.9716 46.6867 59.9315 46.3982H60.4452C69.5205 43.1447 75 38.5215 75 33.5557ZM70.0342 33.5557C70.0342 35.6105 66.2671 39.2064 58.9041 41.6036H58.5616C57.664 38.8492 56.5769 36.1602 55.3082 33.5557C56.5069 30.816 57.5342 28.0763 58.3904 25.5078L59.7603 25.8502C66.6096 28.2475 70.0342 31.5009 70.0342 33.5557ZM42.2945 56.8434L40.9247 55.816C42.8853 53.6435 44.715 51.3564 46.4041 48.9667L55.137 47.5968C55.3082 47.9393 55.3082 48.2817 55.4795 48.453C56.0896 51.5545 56.2052 54.7331 55.8219 57.8708C55.5813 59.3714 54.8603 60.7533 53.7671 61.8091C52.0548 62.8365 47.4315 61.4667 42.2945 56.8434ZM40.0685 49.3091L37.6712 52.3913L34.9315 49.3091H40.0685ZM16.6096 25.3365C17.4702 28.1596 18.5583 30.9084 19.863 33.5557C18.5572 36.2616 17.4693 39.0673 16.6096 41.9461L15.5822 41.6036C12.5837 40.6573 9.79382 39.1461 7.36301 37.1516C6.73359 36.7539 6.19487 36.2282 5.78187 35.6087C5.36886 34.9892 5.0908 34.2897 4.96575 33.5557C4.96575 31.5009 8.39041 28.2475 14.8973 26.0215L16.6096 25.3365ZM34.9315 17.8023L37.5 14.8913L40.0685 17.8023H34.9315ZM53.7671 5.30228C55.6507 6.32968 56.6781 11.4667 55.137 19.0009C55.1449 19.0937 55.1337 19.1871 55.1043 19.2754C55.0749 19.3637 55.0277 19.4451 54.9658 19.5146L46.4041 18.1447C44.715 15.755 42.8853 13.4679 40.9247 11.2954L41.9521 10.4393C47.4315 5.64475 51.8836 4.27488 53.7671 5.30228ZM25.1712 23.453L23.8014 25.679L22.6027 27.905C22.089 26.7064 21.7466 25.5078 21.2329 24.1379L25.1712 23.453ZM21.2329 42.9735C21.7466 41.7749 22.089 40.5762 22.6027 39.2064L23.8014 41.4324L25.1712 43.6584L21.2329 42.9735ZM49.8288 33.5557C48.9574 35.4331 47.9857 37.2622 46.9178 39.0352C45.8904 40.9187 44.6918 42.631 43.6644 44.3434H31.3356C30.137 42.4598 28.9384 40.7475 28.0822 39.0352C27.0059 37.267 26.0339 35.4374 25.1712 33.5557C26.0021 31.6585 26.9752 29.8268 28.0822 28.0763C29.066 26.3022 30.1523 24.587 31.3356 22.9393C35.4381 22.597 39.5619 22.597 43.6644 22.9393C44.863 24.6516 45.8904 26.3639 46.9178 28.0763C48.0248 29.8268 48.9979 31.6585 49.8288 33.5557ZM51.1986 25.679L49.8288 23.453L53.7671 24.3091C53.3858 25.5351 52.9283 26.7361 52.3973 27.905L51.1986 25.679ZM49.8288 43.6584L51.1986 41.4324L52.3973 39.0352L53.9384 42.9735L49.8288 43.6584ZM33.9041 11.1242H34.0753L28.5959 17.9735L20.0342 19.3434C19.863 18.8297 19.863 18.4872 19.6918 17.9735C18.3219 10.953 19.3493 6.15845 21.0616 5.30228C21.5163 5.00369 22.0645 4.88186 22.6027 4.95982C25 4.95982 29.1096 6.67214 33.7329 10.7817L33.9041 11.1242ZM19.6918 49.3091C19.723 48.7805 19.8386 48.2602 20.0342 47.768L28.7671 48.9667C30.4134 51.3883 32.2454 53.6783 34.2466 55.816L33.9041 56.1584L33.5616 56.5009C31.2271 58.6634 28.4935 60.3501 25.5137 61.4667C24.86 61.8091 24.1438 62.0159 23.4082 62.0748C22.6726 62.1336 21.9327 62.0433 21.2329 61.8091C19.3493 60.7817 18.3219 56.1584 19.6918 49.3091Z" fill="#D8D8E3"/>
</svg>
